<?xml version="1.0" encoding="UTF-8"?>
<!DOCTYPE svg PUBLIC "-//W3C//DTD SVG 1.1//EN" "http://www.w3.org/Graphics/SVG/1.1/DTD/svg11.dtd">
<!-- Creator: CorelDRAW 2021 (64-Bit) -->
<svg xmlns="http://www.w3.org/2000/svg" xml:space="preserve" width="179.187mm" height="42.3334mm" version="1.1" style="shape-rendering:geometricPrecision; text-rendering:geometricPrecision; image-rendering:optimizeQuality; fill-rule:evenodd; clip-rule:evenodd"
viewBox="0 0 17872.26 4222.38"
 xmlns:xlink="http://www.w3.org/1999/xlink"
 xmlns:xodm="http://www.corel.com/coreldraw/odm/2003">
 <defs>
  <style type="text/css">
   <![CDATA[
    .fil0 {fill:white;fill-rule:nonzero}
    .fil1 {fill:url(#id0)}
   ]]>
  </style>
  <linearGradient id="id0" gradientUnits="userSpaceOnUse" x1="-0" y1="2111.19" x2="4222.38" y2="2111.19">
   <stop offset="0" style="stop-opacity:1; stop-color:#FFBB20"/>
   <stop offset="1" style="stop-opacity:1; stop-color:#FF1FDD"/>
  </linearGradient>
 </defs>
 <g id="Capa_x0020_1">
  <metadata id="CorelCorpID_0Corel-Layer"/>
  <path class="fil0" d="M5339.71 1593.85l0 1298.94 295.61 0 0 -1298.94 497.19 0 0 -268.75 -1289.99 0 0 268.75 497.19 0zm2040.22 1301.18l293.39 0 0 -1567.69 -293.39 0 0 660.66 -770.4 0 0 -660.66 -295.62 0 0 1567.69 295.62 0 0 -633.79 770.4 0 0 633.79zm573.33 -2.24l293.38 0 0 -1567.69 -293.38 0 0 1567.69zm1684.14 -295.62l132.14 295.62 322.49 0 -703.21 -1567.69 -322.5 0 -703.21 1567.69 320.25 0 134.38 -295.62 819.67 0zm-409.84 -942.85l291.14 667.39 -582.29 0 291.14 -667.39zm2029.03 -331.45l0 974.2 -768.17 -971.97 -239.63 0 0 1567.69 295.62 0 0 -1057.07 824.15 1059.31 0 -2.24 183.64 0 0 -1569.92 -295.62 0zm1948.42 1372.85l-201.57 -203.8c-103.01,103.02 -257.54,159.01 -394.16,159.01 -387.44,0 -537.49,-270.99 -539.74,-530.77 -2.23,-262.03 161.25,-544.22 539.74,-544.22 136.62,0 275.46,47.04 378.49,147.82l197.08 -190.37c-161.25,-159.01 -362.81,-239.63 -575.57,-239.63 -566.61,0 -833.12,416.55 -830.87,826.39 2.23,407.59 248.58,808.48 830.87,808.48 226.19,0 434.47,-73.91 595.72,-232.92zm902.54 -1401.96c-541.97,0 -806.24,414.31 -806.24,826.39 0,412.08 255.31,808.48 806.24,808.48 550.93,0 799.52,-405.37 804,-810.72 4.48,-409.84 -264.27,-824.15 -804,-824.15zm0 268.74c369.53,0 517.34,295.62 512.86,559.89 -4.48,257.55 -143.33,535.26 -512.86,535.26 -369.53,0 -508.38,-275.46 -515.1,-533.02 -6.71,-264.27 145.57,-562.13 515.1,-562.13zm1616.96 -237.39l-615.88 0 0 1567.69 615.88 0c548.7,0 790.57,-400.88 783.84,-797.28 -6.72,-387.44 -246.35,-770.41 -783.84,-770.41zm-322.49 1283.27l0 -1003.32 322.49 0c340.42,0 483.74,244.12 490.47,488.22 6.71,255.32 -134.37,515.1 -490.47,515.1l-322.49 0zm2470.24 284.42l0 -291.14 -880.14 0 0 -353.85 848.79 0 0 -275.46 -848.79 0 0 -360.56 880.14 0 0 -286.67 -1173.53 0 0 1567.69 1173.53 0z"/>
  <path class="fil1" d="M2111.19 0c1165.97,0 2111.19,945.22 2111.19,2111.19 0,1165.97 -945.22,2111.19 -2111.19,2111.19 -1165.97,0 -2111.19,-945.22 -2111.19,-2111.19 0,-1165.97 945.22,-2111.19 2111.19,-2111.19z"/>
 </g>
</svg>
